<svg width="193" height="151" viewBox="0 0 193 151" fill="none" xmlns="http://www.w3.org/2000/svg">
<g clip-path="url(#clip0_40000007_101768)">
<path d="M133.359 129.405V131.626C133.359 136.91 124.699 150.998 96.5001 150.998C68.3008 150.998 59.641 136.908 59.641 131.626V129.425L89.3823 116.896L103.627 116.907L133.357 129.407L133.359 129.405ZM106.661 69.2949H86.3467L60.1289 121.472L83.4862 111.738L88.2631 101.068L90.2781 96.5932L96.5076 82.7189L97.0272 83.8889L102.741 96.6043L104.752 101.08L109.529 111.749L132.875 121.455L106.665 69.2949H106.661ZM96.9098 37.551C54.5755 37.551 18.1056 22.3003 1.57749 0.34787C1.03183 -0.377555 -0.13212 0.122802 0.0131409 1.01749C6.48658 41.4199 47.4018 61.769 96.9098 61.769C146.418 61.769 184.363 40.6387 192.976 2.14097C193.179 1.22954 192.017 0.665941 191.438 1.39881C174.546 22.784 138.566 37.551 96.908 37.551H96.9098ZM28.773 52.5617C28.6668 52.4985 28.5644 52.4334 28.4583 52.3701L32.7509 69.6446C33.8665 74.1329 35.8405 78.3645 38.5614 82.107L58.0729 108.924L78.7224 67.831C59.5777 65.8444 42.5467 60.666 28.773 52.5617ZM163.184 52.3925C149.399 60.5898 132.726 65.824 114.283 67.8273L134.931 108.918L154.437 82.107C157.16 78.3664 159.132 74.1348 160.247 69.6464L164.777 51.4196C164.25 51.747 163.719 52.0725 163.181 52.3925H163.184Z" fill="url(#paint0_linear_40000007_101768)"/>
</g>
<defs>
<linearGradient id="paint0_linear_40000007_101768" x1="96.5001" y1="151" x2="96.5001" y2="3.71337e-05" gradientUnits="userSpaceOnUse">
<stop stop-color="#0B3C49"/>
<stop offset="0.31" stop-color="#0B3240"/>
<stop offset="0.83" stop-color="#0E1928"/>
<stop offset="0.99" stop-color="#0F1020"/>
</linearGradient>
<clipPath id="clip0_40000007_101768">
<rect width="193" height="151" fill="white"/>
</clipPath>
</defs>
</svg>
